<?xml version="1.0" encoding="iso-8859-1"?>
<!-- Generator: Adobe Illustrator 19.0.0, SVG Export Plug-In . SVG Version: 6.00 Build 0)  -->
<svg version="1.1" id="Capa_1" xmlns="http://www.w3.org/2000/svg" xmlns:xlink="http://www.w3.org/1999/xlink" x="0px" y="0px"
	 viewBox="0 0 512 512" style="enable-background:new 0 0 512 512;" xml:space="preserve">
<g>
	<g>
		<g>
			<path d="M442.81,317.073l-63.688-38.219c-4.146-2.5-9.542-1.865-13.021,1.604l-55.313,55.302l-56.604-75.49
				c-1.854-2.479-4.708-4.021-7.792-4.24c-2.979-0.198-6.104,0.906-8.292,3.094l-56.458,56.458l-35.125-35.125
				c-2.646-2.646-6.521-3.708-10.083-2.813l-64.312,15.823c-4.771,1.167-8.125,5.448-8.125,10.354c0,2.906,0.083,5.833,0.167,8.708
				c0.063,2.583,0.146,5.125,0.146,7.563c0,105.813,86.125,191.906,192,191.906c104,0,188.208-81.448,191.688-185.427
				C448.122,322.708,446.143,319.063,442.81,317.073z"/>
			<path d="M89.351,247.396l46.354-11.583l38.396,38.396c4.167,4.167,10.917,4.167,15.083,0l55.313-55.302l56.604,75.49
				c1.854,2.479,4.708,4.021,7.792,4.24c0.25,0.021,0.5,0.031,0.75,0.031c2.813,0,5.542-1.115,7.542-3.125l58.104-58.115
				l49.854,29.906c3.583,2.177,8.167,2,11.625-0.427c3.438-2.427,5.146-6.667,4.313-10.802C419.893,149.76,348.539,0,256.31,0
				C176.351,0,105.289,117.958,76.414,234.49c-0.896,3.625,0.167,7.469,2.813,10.115C81.893,247.24,85.706,248.333,89.351,247.396z"
				/>
		</g>
	</g>
</g>
<g>
</g>
<g>
</g>
<g>
</g>
<g>
</g>
<g>
</g>
<g>
</g>
<g>
</g>
<g>
</g>
<g>
</g>
<g>
</g>
<g>
</g>
<g>
</g>
<g>
</g>
<g>
</g>
<g>
</g>
</svg>
